<svg id="svg" version="1.1" xmlns="http://www.w3.org/2000/svg" xmlns:xlink="http://www.w3.org/1999/xlink" width="400" height="400" viewBox="0, 0, 400,400"><g id="svgg"><path id="path0" d="M163.600 7.443 C 155.011 7.910,145.986 9.221,143.346 10.385 C 140.912 11.458,136.919 15.413,138.654 15.032 C 139.836 14.772,139.887 14.812,139.690 15.839 C 139.565 16.495,139.639 16.823,139.879 16.675 C 140.097 16.540,141.253 17.302,142.448 18.368 L 144.622 20.305 149.968 20.752 C 152.909 20.999,163.884 21.211,174.357 21.225 C 201.310 21.261,199.743 21.003,203.572 26.026 C 205.129 28.068,206.603 28.443,214.377 28.777 C 222.498 29.125,223.019 29.295,224.976 32.243 C 227.266 35.692,227.428 35.747,236.269 36.082 C 245.221 36.421,245.809 36.606,247.445 39.612 C 248.337 41.251,249.002 41.874,250.972 42.916 C 253.089 44.036,253.554 44.503,254.600 46.568 C 256.310 49.943,257.088 50.392,261.949 50.814 C 267.016 51.255,267.755 51.612,269.780 54.600 C 270.970 56.356,271.942 57.275,273.403 58.026 C 274.501 58.590,275.760 59.619,276.200 60.313 C 276.640 61.007,277.361 62.161,277.802 62.878 C 278.244 63.595,279.684 64.918,281.002 65.817 C 282.321 66.716,283.766 68.103,284.213 68.899 C 285.360 70.938,286.332 71.942,288.400 73.223 C 289.424 73.857,290.890 75.335,291.800 76.652 C 292.709 77.968,294.391 79.664,295.697 80.583 C 297.153 81.608,298.502 83.016,299.383 84.429 C 300.389 86.043,301.322 86.957,302.760 87.739 C 304.619 88.751,306.800 90.835,306.800 91.600 C 306.800 92.367,308.984 94.450,310.857 95.470 C 312.264 96.236,313.168 97.101,313.896 98.380 C 315.371 100.969,316.373 101.997,318.200 102.796 C 320.964 104.006,321.310 104.686,321.631 109.551 C 321.979 114.820,322.506 115.966,325.454 117.852 C 328.130 119.563,328.619 120.591,329.008 125.313 C 329.349 129.460,330.052 130.760,332.999 132.693 C 335.989 134.655,336.144 135.142,336.417 143.400 C 336.699 151.941,337.014 152.936,339.943 154.530 C 343.570 156.504,343.374 155.717,343.600 169.212 C 343.830 182.925,343.736 182.569,347.618 184.466 C 351.062 186.149,351.196 186.551,351.197 195.200 C 351.199 204.056,351.004 204.668,347.551 206.671 C 343.949 208.761,343.880 209.030,343.684 221.800 C 343.492 234.239,343.458 234.384,340.215 236.538 C 337.223 238.524,336.875 239.654,336.468 248.691 C 336.097 256.927,336.194 256.673,332.525 259.027 C 329.566 260.925,329.480 261.195,329.175 269.472 C 328.862 277.973,328.606 278.731,325.249 281.089 C 323.939 282.010,322.711 283.303,322.108 284.400 C 320.755 286.860,320.093 287.537,318.000 288.604 C 316.027 289.609,314.993 290.625,313.641 292.886 C 313.152 293.703,311.728 295.053,310.476 295.886 C 307.485 297.876,306.802 299.272,306.800 303.400 C 306.798 307.645,306.128 308.957,303.000 310.831 C 301.033 312.009,300.347 312.723,299.200 314.784 C 298.000 316.940,297.486 317.452,295.600 318.374 C 293.717 319.294,293.202 319.806,292.025 321.931 C 290.869 324.019,290.329 324.565,288.625 325.372 C 286.355 326.447,285.332 327.440,284.014 329.847 C 283.506 330.776,282.416 331.911,281.519 332.447 C 278.921 334.002,278.014 334.890,276.878 337.000 C 275.528 339.505,273.889 340.395,270.600 340.409 C 265.446 340.431,263.755 341.277,262.171 344.625 C 260.786 347.552,260.277 347.711,251.400 347.985 C 242.322 348.265,242.017 348.371,239.993 351.956 C 238.759 354.142,238.224 354.677,236.288 355.656 C 234.674 356.472,233.562 357.427,232.409 358.988 C 230.334 361.796,229.917 361.994,225.121 362.446 C 220.232 362.906,219.206 363.404,217.427 366.184 C 215.190 369.681,215.009 369.743,206.232 370.028 C 197.637 370.308,197.128 370.451,194.098 373.438 C 191.495 376.004,191.272 376.031,171.066 376.204 C 161.033 376.290,152.200 376.538,151.200 376.762 C 146.183 377.885,144.998 377.262,142.782 372.332 C 141.742 370.018,140.535 369.392,136.024 368.827 C 132.058 368.329,131.181 367.831,129.520 365.132 C 127.744 362.246,126.183 361.620,120.733 361.609 C 115.408 361.598,115.398 361.594,114.572 358.967 C 113.757 356.377,112.521 355.036,110.268 354.301 C 108.776 353.814,108.465 353.476,107.319 351.099 C 105.536 347.396,104.740 347.021,98.565 346.969 C 92.895 346.921,93.055 346.988,92.180 344.295 C 91.435 342.001,90.333 340.552,89.037 340.162 C 86.335 339.351,85.640 338.741,85.032 336.652 C 84.401 334.481,83.088 332.939,80.955 331.864 C 80.271 331.519,79.191 330.581,78.555 329.779 C 76.870 327.652,73.996 324.765,72.287 323.482 C 71.468 322.867,70.431 321.646,69.983 320.767 C 69.535 319.889,68.444 318.682,67.558 318.085 C 64.661 316.132,63.862 315.337,62.822 313.370 C 62.258 312.303,61.218 311.063,60.511 310.615 C 59.804 310.167,58.645 309.440,57.935 309.000 C 57.225 308.560,55.911 307.120,55.014 305.800 C 53.915 304.184,52.783 303.073,51.547 302.400 C 49.001 301.013,48.605 300.628,47.243 298.214 C 46.127 296.237,43.661 294.400,42.123 294.400 C 41.128 294.400,40.768 293.075,40.629 288.908 C 40.427 282.888,38.469 279.600,35.086 279.600 C 34.263 279.600,32.959 277.987,32.420 276.306 C 31.843 274.502,30.520 273.387,28.511 273.010 C 25.452 272.436,25.614 273.008,25.712 263.092 C 25.815 252.736,25.735 252.444,22.183 250.172 C 18.228 247.642,18.639 253.288,18.306 197.018 C 18.145 169.728,17.965 146.156,17.906 144.635 L 17.800 141.870 20.520 140.986 C 23.437 140.038,24.693 139.106,25.787 137.079 C 26.166 136.375,27.102 135.350,27.866 134.800 C 32.255 131.641,32.620 131.008,33.182 125.567 C 33.608 121.456,34.155 120.348,36.306 119.242 C 39.560 117.568,40.794 115.163,40.798 110.487 C 40.801 107.337,41.593 105.385,43.234 104.491 C 47.057 102.406,47.574 101.487,48.209 95.644 C 48.758 90.591,48.770 90.569,52.263 88.482 C 53.182 87.933,54.391 86.615,55.269 85.205 C 56.395 83.396,57.201 82.610,58.726 81.838 C 60.696 80.839,61.349 80.181,63.618 76.911 C 64.262 75.982,65.467 74.874,66.295 74.450 C 68.026 73.562,69.068 72.498,70.556 70.100 C 71.136 69.164,72.499 67.814,73.584 67.100 C 74.669 66.385,75.972 65.110,76.479 64.268 C 78.084 61.598,79.252 60.387,81.152 59.424 C 83.284 58.342,83.996 57.619,85.111 55.400 C 86.351 52.933,87.259 52.367,91.629 51.336 C 96.817 50.113,97.764 49.595,99.256 47.171 C 100.822 44.626,102.070 44.006,106.461 43.594 C 110.880 43.180,112.152 42.477,113.900 39.486 C 114.923 37.735,115.684 36.967,117.120 36.236 C 119.679 34.934,120.746 33.679,121.398 31.208 C 122.122 28.463,121.768 28.632,127.332 28.376 C 134.878 28.030,135.835 27.160,135.481 20.970 C 135.361 18.875,135.089 17.379,134.796 17.197 C 134.425 16.968,134.439 16.840,134.855 16.659 C 135.155 16.528,134.320 16.528,133.000 16.660 C 129.621 16.998,130.599 16.303,134.327 15.717 L 137.400 15.234 133.181 15.408 C 125.660 15.719,120.266 17.214,117.577 19.731 C 116.001 21.208,115.338 21.451,110.400 22.369 C 100.156 24.272,98.238 25.011,95.268 28.203 C 94.170 29.382,92.491 30.739,91.536 31.218 C 89.311 32.333,87.724 33.817,86.768 35.675 C 86.099 36.976,85.785 37.181,84.105 37.419 C 77.174 38.400,71.600 41.503,71.600 44.380 C 71.600 44.550,70.565 45.245,69.300 45.924 C 67.056 47.130,65.713 48.487,64.201 51.075 C 63.792 51.777,62.623 52.805,61.604 53.359 C 59.242 54.645,58.091 55.741,56.622 58.102 C 55.973 59.144,55.092 60.107,54.663 60.243 C 53.358 60.658,50.450 63.599,49.353 65.615 C 48.601 66.996,47.783 67.809,46.366 68.580 C 45.135 69.250,43.712 70.555,42.511 72.116 C 41.464 73.477,39.517 75.675,38.184 77.001 C 35.584 79.588,34.622 81.776,33.553 87.532 C 33.131 89.806,32.932 90.159,31.594 91.004 C 28.376 93.035,26.863 95.844,25.993 101.400 C 25.481 104.664,25.003 106.000,24.346 106.000 C 22.117 106.000,19.841 109.765,18.982 114.876 C 18.147 119.843,18.147 119.842,16.802 120.399 C 14.018 121.552,12.105 125.781,11.007 133.206 C 10.860 134.201,10.254 135.138,8.938 136.406 C 3.769 141.390,3.400 145.729,3.400 201.600 C 3.400 255.537,3.597 257.706,8.956 262.719 C 9.967 263.665,10.895 264.925,11.017 265.519 C 12.490 272.685,13.822 275.451,16.789 277.512 C 17.827 278.232,18.649 279.276,19.222 280.600 C 20.417 283.364,21.725 284.994,23.587 286.041 C 25.010 286.841,25.214 287.157,25.602 289.165 C 26.812 295.437,29.014 299.495,32.106 301.150 C 32.937 301.594,33.211 302.225,33.752 304.942 C 34.623 309.320,36.327 312.633,38.616 314.400 C 39.665 315.209,41.001 316.813,41.783 318.200 C 43.311 320.912,44.725 322.370,46.879 323.455 C 47.740 323.888,48.999 325.120,49.889 326.400 C 50.946 327.918,52.071 328.950,53.519 329.730 C 55.147 330.607,55.835 331.290,56.590 332.781 C 57.831 335.229,59.469 336.862,61.768 337.943 C 62.909 338.479,64.147 339.539,65.093 340.789 C 66.950 343.242,70.052 344.880,74.660 345.840 C 77.807 346.495,77.951 346.576,78.838 348.154 C 80.051 350.312,81.744 351.819,84.250 352.969 C 85.731 353.649,86.668 354.449,87.628 355.855 C 89.676 358.852,92.255 360.359,96.800 361.213 C 99.227 361.669,99.560 361.868,101.800 364.201 C 103.120 365.575,104.964 367.174,105.897 367.753 C 106.830 368.332,108.037 369.508,108.578 370.366 C 109.851 372.382,112.118 374.573,113.728 375.345 C 114.428 375.680,115.967 376.953,117.149 378.175 C 120.451 381.587,121.500 382.070,129.306 383.776 C 129.914 383.909,131.378 384.893,132.559 385.963 C 138.441 391.290,144.589 391.821,199.400 391.742 C 256.508 391.660,260.986 391.270,266.416 385.904 C 268.177 384.165,268.330 384.101,271.416 383.821 C 280.944 382.956,284.916 381.774,288.161 378.836 C 289.768 377.380,290.758 376.812,292.057 376.599 C 298.324 375.572,304.000 372.607,304.000 370.359 C 304.000 369.686,305.960 368.758,309.350 367.825 C 313.407 366.709,315.741 365.431,317.860 363.168 C 318.707 362.263,320.390 360.885,321.600 360.104 C 323.996 358.559,324.812 357.756,326.218 355.555 C 326.725 354.760,327.703 353.680,328.391 353.155 C 331.343 350.901,332.858 349.406,333.693 347.921 C 334.316 346.811,335.311 345.930,337.013 344.978 C 339.634 343.512,340.579 342.621,341.955 340.320 C 342.442 339.506,343.506 338.440,344.320 337.950 C 346.211 336.812,347.528 335.334,348.803 332.920 C 349.593 331.425,350.274 330.769,351.882 329.955 C 354.357 328.703,354.573 328.496,356.737 325.300 C 357.668 323.925,358.569 322.800,358.739 322.800 C 360.519 322.800,363.371 317.544,364.281 312.587 C 364.907 309.177,364.921 309.152,366.776 307.938 C 369.862 305.918,371.457 302.792,372.404 296.909 C 372.830 294.265,373.005 293.905,374.456 292.709 C 377.644 290.080,378.709 286.529,379.812 274.858 C 379.999 272.876,380.304 271.742,380.745 271.385 C 383.530 269.132,384.104 268.559,384.671 267.464 C 385.420 266.015,386.198 262.772,386.590 259.461 C 386.847 257.296,387.038 256.950,389.165 254.804 C 394.038 249.885,394.785 242.550,394.794 199.544 C 394.803 157.052,393.984 148.815,389.270 144.044 C 387.289 142.038,387.100 141.676,386.560 138.844 C 385.233 131.877,383.814 129.124,380.657 127.392 C 380.089 127.080,379.748 125.987,379.204 122.733 C 378.330 117.498,377.086 114.993,374.569 113.402 C 373.596 112.787,372.794 112.085,372.786 111.842 C 372.606 106.147,369.942 100.436,366.430 98.219 C 365.072 97.362,364.954 97.109,364.244 93.556 C 363.310 88.884,362.462 87.177,359.805 84.617 C 358.654 83.508,357.302 81.790,356.801 80.800 C 355.458 78.146,354.601 77.156,352.295 75.594 C 350.258 74.215,350.204 74.125,349.371 70.794 C 348.237 66.262,347.226 64.412,344.229 61.384 C 342.844 59.986,341.428 58.245,341.081 57.515 C 340.292 55.851,339.082 54.732,336.871 53.622 C 335.594 52.981,334.723 52.085,333.535 50.191 C 332.129 47.948,329.062 45.200,327.966 45.200 C 327.802 45.200,327.094 44.255,326.392 43.100 C 324.880 40.612,323.645 39.451,321.172 38.191 C 320.166 37.678,318.906 36.616,318.372 35.831 C 316.510 33.094,312.564 31.090,307.312 30.215 C 305.932 29.985,305.465 29.666,304.749 28.467 C 303.276 26.001,301.908 24.756,299.359 23.564 C 297.732 22.803,296.599 21.947,295.959 20.995 C 294.196 18.371,290.097 16.346,284.662 15.413 C 283.556 15.224,282.546 14.584,281.062 13.135 C 277.612 9.765,274.355 8.655,265.907 7.967 C 261.341 7.595,169.462 7.125,163.600 7.443 M284.276 16.657 C 284.078 16.856,282.000 16.101,282.000 15.831 C 282.000 15.727,282.549 15.833,283.220 16.067 C 283.892 16.301,284.367 16.567,284.276 16.657 M118.174 21.242 C 117.776 21.886,114.759 23.181,113.633 23.191 C 112.123 23.205,114.359 22.083,118.324 20.839 C 118.392 20.817,118.324 20.999,118.174 21.242 M178.412 72.772 C 175.359 73.542,174.433 74.235,172.277 77.363 C 170.557 79.858,171.180 79.781,151.019 80.000 C 127.962 80.250,128.424 80.088,128.377 87.959 C 128.333 95.497,127.414 96.354,120.105 95.672 C 110.498 94.776,108.335 95.147,106.531 98.000 C 104.891 100.592,103.926 101.622,102.409 102.395 C 100.709 103.263,99.130 104.986,97.993 107.214 C 97.481 108.218,96.452 109.193,94.912 110.134 C 93.191 111.185,92.242 112.138,91.198 113.860 C 90.125 115.632,89.284 116.459,87.608 117.395 C 86.385 118.079,85.029 119.231,84.533 120.009 C 82.768 122.775,81.849 123.683,79.795 124.690 C 76.830 126.144,76.312 127.225,76.008 132.581 C 75.717 137.728,75.343 138.605,72.997 139.642 C 69.697 141.102,69.019 142.480,68.654 148.460 C 68.412 152.427,67.854 153.410,64.970 154.944 C 63.463 155.745,62.316 156.695,61.804 157.567 C 60.992 158.947,59.395 160.636,56.476 163.200 C 53.903 165.460,53.965 164.489,54.089 200.285 C 54.215 236.940,53.893 233.777,57.800 236.801 C 60.965 239.251,61.150 239.873,61.178 248.200 C 61.206 256.498,61.445 257.187,64.934 259.040 C 66.804 260.032,67.576 260.765,68.813 262.722 C 70.007 264.611,70.814 265.396,72.372 266.186 C 75.161 267.599,75.628 268.487,76.002 273.095 C 76.450 278.600,76.875 279.399,80.524 281.583 C 81.436 282.128,82.678 283.493,83.618 284.981 C 84.670 286.647,85.685 287.720,86.694 288.232 C 89.493 289.653,90.320 290.394,91.560 292.591 C 92.471 294.204,93.246 295.007,94.498 295.636 C 96.752 296.767,97.945 297.902,98.650 299.585 C 99.418 301.419,100.190 302.233,102.668 303.823 C 103.919 304.625,105.142 305.841,105.762 306.899 C 107.735 310.265,109.798 311.191,115.340 311.198 C 118.284 311.201,119.708 312.073,121.093 314.722 C 122.606 317.613,123.771 318.287,127.800 318.603 C 132.636 318.981,134.034 319.620,135.778 322.246 C 138.306 326.053,135.466 325.785,173.400 325.793 C 211.181 325.801,207.908 326.115,210.796 322.206 C 212.859 319.413,213.185 319.259,217.991 318.801 C 222.650 318.357,223.983 317.788,225.226 315.710 C 227.353 312.155,228.194 311.684,233.283 311.198 C 237.422 310.803,238.521 310.227,240.407 307.467 C 241.181 306.334,242.422 305.046,243.166 304.604 C 244.977 303.527,246.620 301.816,248.142 299.420 C 248.994 298.078,250.104 297.028,251.585 296.165 C 253.449 295.078,253.947 294.518,254.985 292.346 C 256.084 290.043,256.429 289.682,258.600 288.560 C 260.635 287.509,261.160 287.001,262.056 285.219 C 263.372 282.599,263.684 282.289,266.401 280.914 C 268.302 279.951,268.755 279.483,269.746 277.463 C 270.805 275.304,271.089 275.037,273.468 273.969 C 275.941 272.860,276.092 272.709,277.236 270.184 C 278.374 267.675,278.544 267.502,280.924 266.434 C 283.001 265.502,283.651 264.955,284.809 263.163 C 285.574 261.979,286.804 260.648,287.543 260.205 C 292.922 256.979,293.212 255.701,293.552 233.710 C 293.832 215.540,293.555 216.958,297.184 215.104 C 300.830 213.241,301.360 210.769,301.114 196.774 C 300.923 185.920,300.752 185.357,297.015 183.348 C 293.715 181.575,293.827 182.029,293.591 169.400 C 293.345 156.228,293.157 155.588,288.912 153.443 C 286.829 152.390,286.639 151.654,286.364 143.600 C 286.051 134.401,285.559 133.030,281.906 131.156 C 279.640 129.994,279.122 128.880,278.738 124.335 C 278.288 119.017,277.734 117.927,274.654 116.297 C 272.515 115.166,272.023 114.673,270.801 112.439 C 268.977 109.106,267.968 108.581,262.703 108.229 C 257.361 107.872,257.349 107.867,256.205 105.610 C 255.118 103.466,254.101 102.528,251.674 101.434 C 250.325 100.825,249.810 100.239,248.720 98.072 C 246.724 94.105,246.108 93.882,236.373 93.615 C 227.506 93.372,227.740 93.452,226.226 90.144 C 225.362 88.257,224.975 87.862,223.315 87.166 C 222.262 86.725,221.130 86.225,220.800 86.055 C 220.470 85.884,219.615 84.532,218.899 83.050 C 216.825 78.753,216.317 78.609,203.600 78.708 C 191.596 78.802,191.262 78.735,189.416 75.859 C 186.864 71.880,184.536 71.227,178.412 72.772 M352.367 77.084 C 352.458 77.148,352.362 77.200,352.152 77.200 C 351.942 77.200,351.147 76.647,350.385 75.971 L 349.000 74.742 350.600 75.855 C 351.480 76.467,352.275 77.020,352.367 77.084 M215.792 88.869 C 216.319 89.109,217.159 90.281,217.803 91.676 C 218.830 93.901,219.093 94.160,221.527 95.335 C 222.967 96.031,224.280 96.870,224.444 97.200 C 224.609 97.530,225.124 98.638,225.589 99.663 C 226.931 102.617,227.905 102.911,237.259 103.177 C 246.006 103.425,246.246 103.501,247.452 106.386 C 248.312 108.445,249.469 109.492,251.700 110.233 C 253.464 110.819,253.774 111.100,254.469 112.746 C 255.901 116.137,256.175 116.492,258.508 117.975 C 259.961 118.899,261.306 120.182,262.113 121.414 C 262.888 122.598,264.329 123.994,265.735 124.924 C 268.516 126.763,269.004 127.766,269.336 132.316 C 269.652 136.660,270.368 138.097,273.001 139.671 C 275.932 141.425,276.471 142.521,276.780 147.366 C 277.100 152.379,277.739 153.629,280.694 155.027 C 284.235 156.702,284.166 156.421,284.398 170.198 C 284.624 183.676,284.587 183.498,287.600 185.400 C 290.287 187.096,290.436 187.564,290.669 195.076 C 291.080 208.282,290.486 211.032,286.794 213.042 C 283.355 214.914,283.427 214.538,283.200 231.618 C 282.978 248.261,283.004 248.103,280.272 249.538 C 276.554 251.491,275.897 252.835,275.369 259.566 C 275.078 263.278,274.807 263.718,271.666 265.575 C 270.412 266.317,269.704 267.179,268.708 269.175 C 267.560 271.478,267.148 271.923,265.344 272.800 C 262.624 274.123,262.118 274.595,260.956 276.888 C 260.246 278.288,259.561 279.012,258.487 279.500 C 255.806 280.715,254.760 281.664,253.752 283.792 C 252.611 286.202,251.627 286.800,248.801 286.800 C 243.733 286.800,240.837 288.110,238.661 291.387 C 237.687 292.854,236.640 293.865,235.502 294.436 C 233.316 295.533,232.101 296.652,231.200 298.400 C 229.784 301.145,228.909 301.614,224.405 302.038 C 219.429 302.506,218.361 303.020,216.578 305.808 C 214.823 308.551,214.379 308.773,209.315 309.438 C 204.559 310.063,203.267 310.673,201.941 312.918 C 199.565 316.943,199.822 316.891,182.981 316.726 C 168.379 316.582,168.860 316.689,166.949 313.177 C 165.525 310.560,163.923 309.720,159.759 309.405 C 153.130 308.903,153.247 308.942,150.718 306.381 C 148.218 303.850,148.089 303.802,142.688 303.425 C 138.600 303.140,137.534 302.538,135.993 299.648 C 135.181 298.125,134.107 296.838,132.959 296.013 C 131.614 295.048,130.848 294.035,129.816 291.860 C 128.658 289.420,128.099 288.741,126.139 287.392 C 124.868 286.516,123.427 285.170,122.936 284.400 C 121.210 281.689,120.276 280.737,118.184 279.556 C 115.616 278.107,115.602 278.075,115.019 272.600 C 114.457 267.331,113.946 266.388,110.786 264.793 C 108.894 263.838,108.280 263.251,107.239 261.408 C 106.323 259.785,105.386 258.797,103.796 257.780 C 101.068 256.035,100.565 255.056,100.207 250.800 C 99.855 246.609,98.887 244.227,97.156 243.292 C 93.695 241.424,93.500 241.010,92.598 233.587 C 92.284 231.012,91.151 229.405,88.655 227.996 C 85.247 226.073,85.400 227.261,85.400 202.761 C 85.400 178.882,85.296 179.796,88.146 178.566 C 92.136 176.844,92.435 176.087,92.801 166.800 C 93.138 158.236,93.350 157.543,96.044 156.178 C 99.809 154.270,100.670 151.536,99.038 146.675 C 97.557 142.264,97.980 141.318,102.025 139.999 C 103.206 139.614,104.537 138.668,106.000 137.173 C 107.210 135.938,109.036 134.452,110.058 133.871 C 113.858 131.712,114.892 129.458,114.518 124.150 C 114.229 120.057,114.630 119.104,117.188 117.802 C 119.331 116.710,120.405 115.606,121.559 113.308 C 122.690 111.055,124.058 110.431,128.767 110.022 C 133.482 109.612,133.932 109.399,136.004 106.594 C 138.053 103.822,139.133 103.283,143.568 102.824 C 147.741 102.393,149.500 101.679,150.811 99.885 C 151.973 98.295,152.784 97.703,155.682 96.331 C 157.609 95.419,158.161 94.902,159.228 93.012 C 161.351 89.249,160.420 89.412,180.400 89.321 C 195.426 89.253,199.963 89.074,208.000 88.233 C 210.080 88.016,214.757 88.398,215.792 88.869 M173.800 148.712 C 172.463 148.980,164.059 151.134,159.600 152.352 C 157.290 152.983,153.278 154.063,150.684 154.751 C 143.671 156.613,142.900 157.396,143.409 162.146 C 143.799 165.787,140.622 167.970,132.515 169.632 C 128.076 170.543,126.974 172.278,128.028 176.700 C 128.745 179.711,128.290 180.477,125.289 181.311 C 121.703 182.308,120.613 183.757,121.022 186.981 C 121.613 191.632,121.306 192.242,117.823 193.340 C 113.621 194.665,113.289 196.205,115.396 204.599 C 117.239 211.942,116.898 213.060,112.404 214.399 C 107.406 215.887,106.550 220.341,109.850 227.691 C 110.647 229.468,111.492 232.276,111.836 234.291 C 113.105 241.727,112.436 241.676,133.200 235.951 C 135.510 235.314,139.200 234.322,141.400 233.746 C 148.070 232.001,148.495 231.535,147.640 226.898 C 147.032 223.597,147.472 222.845,150.702 221.668 C 154.545 220.267,154.791 219.747,154.366 213.915 C 154.123 210.576,154.237 210.509,165.000 207.629 C 170.895 206.051,171.657 204.705,170.143 198.535 C 169.839 197.296,171.115 196.198,173.746 195.433 C 177.634 194.303,178.217 193.495,178.106 189.394 C 177.989 185.120,178.220 184.674,181.098 183.600 C 185.955 181.790,185.954 181.793,182.980 169.887 C 178.053 150.159,177.136 148.044,173.800 148.712 M243.600 160.173 C 226.287 164.283,225.367 164.784,225.740 169.895 C 226.087 174.652,226.028 174.713,219.559 176.364 C 209.771 178.862,208.939 179.536,209.680 184.360 C 210.220 187.871,209.840 188.549,206.501 190.034 C 203.001 191.591,202.800 191.898,202.800 195.703 C 202.800 199.681,202.586 200.048,199.251 201.801 C 196.119 203.446,195.600 204.249,195.600 207.439 C 195.600 212.396,192.064 214.381,178.200 217.203 C 171.155 218.637,169.373 220.251,170.058 224.575 C 170.745 228.911,169.517 230.008,162.249 231.549 C 154.444 233.204,153.185 234.280,154.000 238.601 C 154.663 242.116,154.179 243.007,150.678 244.718 C 145.523 247.237,146.297 252.100,151.656 250.863 C 156.144 249.827,156.666 250.082,158.151 254.032 C 159.840 258.527,161.362 258.794,170.383 256.180 C 176.507 254.406,177.651 254.759,179.200 258.906 C 180.644 262.771,182.324 263.048,190.600 260.786 C 193.714 259.935,195.853 259.385,208.579 256.159 C 223.136 252.469,223.429 252.283,222.988 246.992 C 222.614 242.503,223.017 242.085,229.080 240.663 C 238.618 238.427,239.433 237.816,239.048 233.197 C 238.711 229.152,238.931 228.747,242.430 226.985 C 246.479 224.946,246.527 224.639,244.214 215.738 C 242.451 208.954,242.682 208.171,247.140 205.800 C 250.667 203.924,250.740 203.535,248.872 196.504 C 246.311 186.866,246.335 186.678,250.303 185.199 C 255.773 183.159,255.779 182.934,250.865 166.052 C 249.050 159.817,248.155 159.092,243.600 160.173 M168.279 163.000 C 168.751 163.331,169.260 164.186,169.411 164.900 C 169.683 166.188,171.235 172.133,172.854 178.088 C 173.988 182.260,173.766 182.931,170.900 184.002 C 166.787 185.538,165.787 187.105,166.118 191.491 C 166.378 194.928,166.185 195.156,162.200 196.140 C 152.159 198.617,150.000 200.318,150.000 205.752 C 150.000 208.397,148.700 210.400,146.983 210.400 C 144.708 210.400,142.583 214.409,142.992 217.930 C 143.324 220.793,142.825 221.346,139.180 222.144 C 137.761 222.454,134.105 223.359,131.055 224.154 C 123.375 226.157,123.545 226.205,122.071 221.600 C 120.240 215.878,120.323 215.528,123.975 213.581 C 127.940 211.468,128.418 209.142,126.576 200.931 C 125.135 194.507,125.216 194.109,128.302 192.477 C 131.627 190.718,132.203 189.631,132.093 185.312 C 131.994 181.444,131.835 181.604,136.934 180.415 C 145.783 178.352,147.770 176.767,147.865 171.695 C 147.939 167.717,148.049 167.565,151.562 166.616 C 152.793 166.283,155.060 165.639,156.600 165.184 C 158.742 164.552,165.594 162.783,167.211 162.444 C 167.327 162.420,167.808 162.670,168.279 163.000 M239.971 174.385 C 240.803 174.830,241.323 176.023,242.184 179.458 C 243.244 183.689,243.123 184.162,240.539 185.889 C 236.567 188.543,235.886 191.701,237.795 198.603 C 239.516 204.825,239.049 205.913,234.178 207.031 C 232.650 207.381,229.690 208.183,227.600 208.813 C 220.592 210.924,219.697 210.785,217.804 207.290 C 216.315 204.539,214.786 203.619,211.200 203.319 C 207.831 203.036,207.737 202.646,210.571 200.731 C 213.549 198.720,214.103 197.741,214.378 193.991 C 214.671 190.009,214.404 190.183,224.473 187.418 C 228.687 186.260,230.400 183.961,230.400 179.462 C 230.400 176.447,230.501 176.330,234.254 175.019 C 237.254 173.971,238.864 173.792,239.971 174.385 M213.046 221.506 C 213.292 221.668,213.861 222.520,214.311 223.400 C 215.840 226.386,217.737 227.783,220.858 228.222 C 223.796 228.635,223.812 228.687,221.583 230.692 C 219.037 232.981,218.400 234.390,218.400 237.738 C 218.400 241.113,217.825 241.514,210.600 243.174 C 208.840 243.579,205.690 244.390,203.600 244.976 C 201.510 245.562,197.460 246.678,194.600 247.455 C 191.740 248.232,188.036 249.307,186.370 249.844 C 181.050 251.556,180.105 251.370,178.550 248.302 C 176.980 245.202,175.684 244.291,171.633 243.437 L 169.467 242.981 171.586 240.990 C 174.096 238.633,174.800 237.168,174.800 234.302 C 174.800 230.770,175.645 230.210,184.000 228.206 C 185.430 227.863,188.940 226.954,191.800 226.187 C 194.660 225.419,198.710 224.345,200.800 223.800 C 202.890 223.255,205.680 222.456,207.000 222.026 C 209.460 221.223,212.253 220.983,213.046 221.506 M230.400 227.400 C 229.287 228.036,228.000 228.179,228.000 227.667 C 228.000 227.034,228.539 226.800,229.967 226.814 L 231.400 226.828 230.400 227.400 M227.600 227.800 C 227.600 228.232,227.181 228.391,226.100 228.368 L 224.600 228.335 225.800 227.786 C 227.355 227.073,227.600 227.075,227.600 227.800 M167.200 243.790 C 167.200 244.407,164.531 245.227,162.879 245.118 L 161.000 244.994 162.400 244.330 C 163.669 243.727,167.200 243.330,167.200 243.790 M99.800 360.611 C 100.460 360.888,101.360 361.423,101.800 361.800 C 102.562 362.452,102.548 362.454,101.514 361.842 C 100.917 361.489,100.197 361.187,99.914 361.170 C 99.631 361.154,98.680 360.800,97.800 360.384 C 95.927 359.498,97.603 359.688,99.800 360.611 M109.232 368.645 C 109.544 369.026,108.972 368.722,107.960 367.969 C 106.948 367.216,105.738 366.339,105.272 366.021 C 104.806 365.702,104.338 365.215,104.232 364.939 C 104.012 364.365,108.369 367.595,109.232 368.645 M307.472 367.242 C 306.632 367.685,305.642 367.984,305.272 367.905 C 304.872 367.820,305.329 367.499,306.400 367.113 C 308.865 366.223,309.303 366.276,307.472 367.242 " stroke="none" fill="#27160b" fill-rule="evenodd"></path><path id="path1" d="M137.936 15.190 C 137.351 15.367,135.595 15.640,134.034 15.797 C 132.474 15.953,131.082 16.267,130.942 16.494 C 130.771 16.770,131.463 16.817,133.044 16.636 C 134.524 16.465,135.197 16.502,134.855 16.734 C 134.450 17.008,134.434 17.145,134.794 17.265 C 135.102 17.367,135.351 18.702,135.479 20.934 C 135.835 27.165,134.889 28.029,127.332 28.376 C 121.768 28.632,122.122 28.463,121.398 31.208 C 120.746 33.679,119.679 34.934,117.120 36.236 C 115.684 36.967,114.923 37.735,113.900 39.486 C 112.152 42.477,110.880 43.180,106.461 43.594 C 102.070 44.006,100.822 44.626,99.256 47.171 C 97.764 49.595,96.817 50.113,91.629 51.336 C 87.259 52.367,86.351 52.933,85.111 55.400 C 83.996 57.619,83.284 58.342,81.152 59.424 C 79.252 60.387,78.084 61.598,76.479 64.268 C 75.972 65.110,74.669 66.385,73.584 67.100 C 72.499 67.814,71.136 69.164,70.556 70.100 C 69.068 72.498,68.026 73.562,66.295 74.450 C 65.467 74.874,64.262 75.982,63.618 76.911 C 61.349 80.181,60.696 80.839,58.726 81.838 C 57.201 82.610,56.395 83.396,55.269 85.205 C 54.391 86.615,53.182 87.933,52.263 88.482 C 48.770 90.569,48.758 90.591,48.209 95.644 C 47.574 101.487,47.057 102.406,43.234 104.491 C 41.593 105.385,40.801 107.337,40.798 110.487 C 40.794 115.163,39.560 117.568,36.306 119.242 C 34.155 120.348,33.608 121.456,33.182 125.567 C 32.620 131.008,32.255 131.641,27.866 134.800 C 27.102 135.350,26.166 136.375,25.787 137.079 C 24.693 139.106,23.437 140.038,20.520 140.986 L 17.800 141.870 17.906 144.635 C 17.965 146.156,18.145 169.728,18.306 197.018 C 18.639 253.288,18.228 247.642,22.183 250.172 C 25.735 252.444,25.815 252.736,25.712 263.092 C 25.614 273.008,25.452 272.436,28.511 273.010 C 30.520 273.387,31.843 274.502,32.420 276.306 C 32.959 277.987,34.263 279.600,35.086 279.600 C 38.469 279.600,40.427 282.888,40.629 288.908 C 40.768 293.075,41.128 294.400,42.123 294.400 C 43.661 294.400,46.127 296.237,47.243 298.214 C 48.605 300.628,49.001 301.013,51.547 302.400 C 52.781 303.072,53.918 304.187,55.017 305.800 C 55.916 307.120,57.219 308.560,57.913 309.000 C 58.607 309.440,59.762 310.161,60.479 310.603 C 61.197 311.045,62.249 312.285,62.816 313.359 C 63.862 315.337,64.659 316.131,67.558 318.085 C 68.444 318.682,69.535 319.889,69.983 320.767 C 70.431 321.646,71.468 322.867,72.287 323.482 C 73.996 324.765,76.870 327.652,78.555 329.779 C 79.191 330.581,80.271 331.519,80.955 331.864 C 83.088 332.939,84.401 334.481,85.032 336.652 C 85.640 338.741,86.335 339.351,89.037 340.162 C 90.333 340.552,91.435 342.001,92.180 344.295 C 93.055 346.988,92.895 346.921,98.565 346.969 C 104.740 347.021,105.536 347.396,107.319 351.099 C 108.465 353.476,108.776 353.814,110.268 354.301 C 112.521 355.036,113.757 356.377,114.572 358.967 C 115.398 361.594,115.408 361.598,120.733 361.609 C 126.183 361.620,127.744 362.246,129.520 365.132 C 131.181 367.831,132.058 368.329,136.024 368.827 C 140.535 369.392,141.742 370.018,142.782 372.332 C 144.998 377.262,146.183 377.885,151.200 376.762 C 152.200 376.538,161.033 376.290,171.066 376.204 C 191.272 376.031,191.495 376.004,194.098 373.438 C 197.128 370.451,197.637 370.308,206.232 370.028 C 215.009 369.743,215.190 369.681,217.427 366.184 C 219.206 363.404,220.232 362.906,225.121 362.446 C 229.917 361.994,230.334 361.796,232.409 358.988 C 233.562 357.427,234.674 356.472,236.288 355.656 C 238.224 354.677,238.759 354.142,239.993 351.956 C 242.017 348.371,242.322 348.265,251.400 347.985 C 260.277 347.711,260.786 347.552,262.171 344.625 C 263.755 341.277,265.446 340.431,270.600 340.409 C 273.889 340.395,275.528 339.505,276.878 337.000 C 278.014 334.890,278.921 334.002,281.519 332.447 C 282.416 331.911,283.506 330.776,284.014 329.847 C 285.332 327.440,286.355 326.447,288.625 325.372 C 290.329 324.565,290.869 324.019,292.025 321.931 C 293.202 319.806,293.717 319.294,295.600 318.374 C 297.486 317.452,298.000 316.940,299.200 314.784 C 300.347 312.723,301.033 312.009,303.000 310.831 C 306.128 308.957,306.798 307.645,306.800 303.400 C 306.802 299.272,307.485 297.876,310.476 295.886 C 311.728 295.053,313.152 293.703,313.641 292.886 C 314.993 290.625,316.027 289.609,318.000 288.604 C 320.093 287.537,320.755 286.860,322.108 284.400 C 322.711 283.303,323.939 282.010,325.249 281.089 C 328.606 278.731,328.862 277.973,329.175 269.472 C 329.480 261.195,329.566 260.925,332.525 259.027 C 336.194 256.673,336.097 256.927,336.468 248.691 C 336.875 239.654,337.223 238.524,340.215 236.538 C 343.458 234.384,343.492 234.239,343.684 221.800 C 343.880 209.030,343.949 208.761,347.551 206.671 C 351.004 204.668,351.199 204.056,351.197 195.200 C 351.196 186.551,351.062 186.149,347.618 184.466 C 343.736 182.569,343.830 182.925,343.600 169.212 C 343.374 155.717,343.570 156.504,339.943 154.530 C 337.014 152.936,336.699 151.941,336.417 143.400 C 336.144 135.142,335.989 134.655,332.999 132.693 C 330.052 130.760,329.349 129.460,329.008 125.313 C 328.619 120.591,328.130 119.563,325.454 117.852 C 322.506 115.966,321.979 114.820,321.631 109.551 C 321.310 104.686,320.964 104.006,318.200 102.796 C 316.373 101.997,315.371 100.969,313.896 98.380 C 313.168 97.101,312.264 96.236,310.857 95.470 C 308.984 94.450,306.800 92.367,306.800 91.600 C 306.800 90.835,304.619 88.751,302.760 87.739 C 301.322 86.957,300.389 86.043,299.383 84.429 C 298.502 83.016,297.153 81.608,295.697 80.583 C 294.391 79.664,292.709 77.968,291.800 76.652 C 290.890 75.335,289.424 73.857,288.400 73.223 C 286.332 71.942,285.360 70.938,284.213 68.899 C 283.766 68.103,282.327 66.720,281.016 65.826 C 279.705 64.932,278.265 63.621,277.816 62.913 C 277.367 62.205,276.640 61.045,276.200 60.336 C 275.753 59.615,274.518 58.594,273.403 58.023 C 271.940 57.273,270.972 56.359,269.780 54.600 C 267.755 51.612,267.016 51.255,261.949 50.814 C 257.088 50.392,256.310 49.943,254.600 46.568 C 253.554 44.503,253.089 44.036,250.972 42.916 C 249.002 41.874,248.337 41.251,247.445 39.612 C 245.809 36.606,245.221 36.421,236.269 36.082 C 227.428 35.747,227.266 35.692,224.976 32.243 C 223.019 29.295,222.498 29.125,214.377 28.777 C 206.603 28.443,205.129 28.068,203.572 26.026 C 199.743 21.003,201.310 21.261,174.357 21.225 C 163.884 21.211,152.909 20.999,149.968 20.752 L 144.622 20.305 142.448 18.368 C 141.253 17.302,140.097 16.540,139.879 16.675 C 139.640 16.823,139.564 16.501,139.687 15.859 C 139.902 14.731,139.705 14.656,137.936 15.190 M282.000 15.831 C 282.000 16.101,284.078 16.856,284.276 16.657 C 284.367 16.567,283.892 16.301,283.220 16.067 C 282.549 15.833,282.000 15.727,282.000 15.831 M115.685 21.787 C 112.804 22.829,112.256 23.204,113.633 23.191 C 114.759 23.181,117.776 21.886,118.174 21.242 C 118.324 20.999,118.392 20.817,118.324 20.839 C 118.256 20.860,117.068 21.287,115.685 21.787 M187.225 73.018 C 187.704 73.448,188.690 74.726,189.416 75.859 C 191.262 78.735,191.596 78.802,203.600 78.708 C 216.317 78.609,216.825 78.753,218.899 83.050 C 219.615 84.532,220.470 85.884,220.800 86.055 C 221.130 86.225,222.262 86.725,223.315 87.166 C 224.975 87.862,225.362 88.257,226.226 90.144 C 227.740 93.452,227.506 93.372,236.373 93.615 C 246.108 93.882,246.724 94.105,248.720 98.072 C 249.810 100.239,250.325 100.825,251.674 101.434 C 254.101 102.528,255.118 103.466,256.205 105.610 C 257.349 107.867,257.361 107.872,262.703 108.229 C 267.968 108.581,268.977 109.106,270.801 112.439 C 272.023 114.673,272.515 115.166,274.654 116.297 C 277.734 117.927,278.288 119.017,278.738 124.335 C 279.122 128.880,279.640 129.994,281.906 131.156 C 285.559 133.030,286.051 134.401,286.364 143.600 C 286.639 151.654,286.829 152.390,288.912 153.443 C 293.157 155.588,293.345 156.228,293.591 169.400 C 293.827 182.029,293.715 181.575,297.015 183.348 C 300.752 185.357,300.923 185.920,301.114 196.774 C 301.360 210.769,300.830 213.241,297.184 215.104 C 293.555 216.958,293.832 215.540,293.552 233.710 C 293.212 255.701,292.922 256.979,287.543 260.205 C 286.804 260.648,285.574 261.979,284.809 263.163 C 283.651 264.955,283.001 265.502,280.924 266.434 C 278.544 267.502,278.374 267.675,277.236 270.184 C 276.092 272.709,275.941 272.860,273.468 273.969 C 271.089 275.037,270.805 275.304,269.746 277.463 C 268.755 279.483,268.302 279.951,266.401 280.914 C 263.684 282.289,263.372 282.599,262.056 285.219 C 261.160 287.001,260.635 287.509,258.600 288.560 C 256.429 289.682,256.084 290.043,254.985 292.346 C 253.947 294.518,253.449 295.078,251.585 296.165 C 250.104 297.028,248.994 298.078,248.142 299.420 C 246.620 301.816,244.977 303.527,243.166 304.604 C 242.422 305.046,241.181 306.334,240.407 307.467 C 238.521 310.227,237.422 310.803,233.283 311.198 C 228.194 311.684,227.353 312.155,225.226 315.710 C 223.983 317.788,222.650 318.357,217.991 318.801 C 213.185 319.259,212.859 319.413,210.796 322.206 C 207.908 326.115,211.181 325.801,173.400 325.793 C 135.466 325.785,138.306 326.053,135.778 322.246 C 134.034 319.620,132.636 318.981,127.800 318.603 C 123.771 318.287,122.606 317.613,121.093 314.722 C 119.708 312.073,118.284 311.201,115.340 311.198 C 109.798 311.191,107.735 310.265,105.762 306.899 C 105.142 305.841,103.919 304.625,102.668 303.823 C 100.190 302.233,99.418 301.419,98.650 299.585 C 97.945 297.902,96.752 296.767,94.498 295.636 C 93.246 295.007,92.471 294.204,91.560 292.591 C 90.320 290.394,89.493 289.653,86.694 288.232 C 85.685 287.720,84.670 286.647,83.618 284.981 C 82.678 283.493,81.436 282.128,80.524 281.583 C 76.875 279.399,76.450 278.600,76.002 273.095 C 75.628 268.487,75.161 267.599,72.372 266.186 C 70.814 265.396,70.007 264.611,68.813 262.722 C 67.576 260.765,66.804 260.032,64.934 259.040 C 61.445 257.187,61.206 256.498,61.178 248.200 C 61.150 239.873,60.965 239.251,57.800 236.801 C 53.893 233.777,54.215 236.940,54.089 200.285 C 53.965 164.489,53.903 165.460,56.476 163.200 C 59.395 160.636,60.992 158.947,61.804 157.567 C 62.316 156.695,63.463 155.745,64.970 154.944 C 67.854 153.410,68.412 152.427,68.654 148.460 C 69.019 142.480,69.697 141.102,72.997 139.642 C 75.343 138.605,75.717 137.728,76.008 132.581 C 76.312 127.225,76.830 126.144,79.795 124.690 C 81.849 123.683,82.768 122.775,84.533 120.009 C 85.029 119.231,86.385 118.079,87.608 117.395 C 89.284 116.459,90.125 115.632,91.198 113.860 C 92.242 112.138,93.191 111.185,94.912 110.134 C 96.452 109.193,97.481 108.218,97.993 107.214 C 99.130 104.986,100.709 103.263,102.409 102.395 C 103.926 101.622,104.891 100.592,106.531 98.000 C 108.335 95.147,110.498 94.776,120.105 95.672 C 127.414 96.354,128.333 95.497,128.377 87.959 C 128.424 80.088,127.962 80.250,151.019 80.000 C 171.180 79.781,170.557 79.858,172.277 77.363 C 174.433 74.235,175.359 73.542,178.412 72.772 C 182.214 71.812,186.002 71.918,187.225 73.018 M350.385 75.971 C 351.147 76.647,351.942 77.200,352.152 77.200 C 352.362 77.200,352.458 77.148,352.367 77.084 C 352.275 77.020,351.480 76.467,350.600 75.855 L 349.000 74.742 350.385 75.971 M208.000 88.233 C 199.963 89.074,195.426 89.253,180.400 89.321 C 160.420 89.412,161.351 89.249,159.228 93.012 C 158.161 94.902,157.609 95.419,155.682 96.331 C 152.784 97.703,151.973 98.295,150.811 99.885 C 149.500 101.679,147.741 102.393,143.568 102.824 C 139.133 103.283,138.053 103.822,136.004 106.594 C 133.932 109.399,133.482 109.612,128.767 110.022 C 124.058 110.431,122.690 111.055,121.559 113.308 C 120.405 115.606,119.331 116.710,117.188 117.802 C 114.630 119.104,114.229 120.057,114.518 124.150 C 114.892 129.458,113.858 131.712,110.058 133.871 C 109.036 134.452,107.210 135.938,106.000 137.173 C 104.537 138.668,103.206 139.614,102.025 139.999 C 97.980 141.318,97.557 142.264,99.038 146.675 C 100.670 151.536,99.809 154.270,96.044 156.178 C 93.350 157.543,93.138 158.236,92.801 166.800 C 92.435 176.087,92.136 176.844,88.146 178.566 C 85.296 179.796,85.400 178.882,85.400 202.761 C 85.400 227.261,85.247 226.073,88.655 227.996 C 91.151 229.405,92.284 231.012,92.598 233.587 C 93.500 241.010,93.695 241.424,97.156 243.292 C 98.887 244.227,99.855 246.609,100.207 250.800 C 100.565 255.056,101.068 256.035,103.796 257.780 C 105.386 258.797,106.323 259.785,107.239 261.408 C 108.280 263.251,108.894 263.838,110.786 264.793 C 113.946 266.388,114.457 267.331,115.019 272.600 C 115.602 278.075,115.616 278.107,118.184 279.556 C 120.276 280.737,121.210 281.689,122.936 284.400 C 123.427 285.170,124.868 286.516,126.139 287.392 C 128.099 288.741,128.658 289.420,129.816 291.860 C 130.848 294.035,131.614 295.048,132.959 296.013 C 134.107 296.838,135.181 298.125,135.993 299.648 C 137.534 302.538,138.600 303.140,142.688 303.425 C 148.089 303.802,148.218 303.850,150.718 306.381 C 153.247 308.942,153.130 308.903,159.759 309.405 C 163.923 309.720,165.525 310.560,166.949 313.177 C 168.860 316.689,168.379 316.582,182.981 316.726 C 199.822 316.891,199.565 316.943,201.941 312.918 C 203.267 310.673,204.559 310.063,209.315 309.438 C 214.379 308.773,214.823 308.551,216.578 305.808 C 218.361 303.020,219.429 302.506,224.405 302.038 C 228.909 301.614,229.784 301.145,231.200 298.400 C 232.101 296.652,233.316 295.533,235.502 294.436 C 236.640 293.865,237.687 292.854,238.661 291.387 C 240.837 288.110,243.733 286.800,248.801 286.800 C 251.627 286.800,252.611 286.202,253.752 283.792 C 254.760 281.664,255.806 280.715,258.487 279.500 C 259.561 279.012,260.246 278.288,260.956 276.888 C 262.118 274.595,262.624 274.123,265.344 272.800 C 267.148 271.923,267.560 271.478,268.708 269.175 C 269.704 267.179,270.412 266.317,271.666 265.575 C 274.807 263.718,275.078 263.278,275.369 259.566 C 275.897 252.835,276.554 251.491,280.272 249.538 C 283.004 248.103,282.978 248.261,283.200 231.618 C 283.427 214.538,283.355 214.914,286.794 213.042 C 290.486 211.032,291.080 208.282,290.669 195.076 C 290.436 187.564,290.287 187.096,287.600 185.400 C 284.587 183.498,284.624 183.676,284.398 170.198 C 284.166 156.421,284.235 156.702,280.694 155.027 C 277.739 153.629,277.100 152.379,276.780 147.366 C 276.471 142.521,275.932 141.425,273.001 139.671 C 270.368 138.097,269.652 136.660,269.336 132.316 C 269.004 127.766,268.516 126.763,265.735 124.924 C 264.329 123.994,262.888 122.598,262.113 121.414 C 261.306 120.182,259.961 118.899,258.508 117.975 C 256.175 116.492,255.901 116.137,254.469 112.746 C 253.774 111.100,253.464 110.819,251.700 110.233 C 249.469 109.492,248.312 108.445,247.452 106.386 C 246.246 103.501,246.006 103.425,237.259 103.177 C 227.905 102.911,226.931 102.617,225.589 99.663 C 225.124 98.638,224.609 97.530,224.444 97.200 C 224.280 96.870,222.967 96.031,221.527 95.335 C 219.093 94.160,218.830 93.901,217.803 91.676 C 216.381 88.596,213.662 87.641,208.000 88.233 M177.392 150.384 C 178.693 152.901,185.200 177.511,185.200 179.917 C 185.200 181.419,183.958 182.534,181.098 183.600 C 178.220 184.674,177.989 185.120,178.106 189.394 C 178.217 193.495,177.634 194.303,173.746 195.433 C 171.115 196.198,169.839 197.296,170.143 198.535 C 171.657 204.705,170.895 206.051,165.000 207.629 C 154.237 210.509,154.123 210.576,154.366 213.915 C 154.791 219.747,154.545 220.267,150.702 221.668 C 147.472 222.845,147.032 223.597,147.640 226.898 C 148.495 231.535,148.070 232.001,141.400 233.746 C 139.200 234.322,135.510 235.314,133.200 235.951 C 112.436 241.676,113.105 241.727,111.836 234.291 C 111.492 232.276,110.647 229.468,109.850 227.691 C 106.550 220.341,107.406 215.887,112.404 214.399 C 116.898 213.060,117.239 211.942,115.396 204.599 C 113.289 196.205,113.621 194.665,117.823 193.340 C 121.306 192.242,121.613 191.632,121.022 186.981 C 120.613 183.757,121.703 182.308,125.289 181.311 C 128.290 180.477,128.745 179.711,128.028 176.700 C 126.974 172.278,128.076 170.543,132.515 169.632 C 140.622 167.970,143.799 165.787,143.409 162.146 C 142.900 157.396,143.671 156.613,150.684 154.751 C 153.278 154.063,157.290 152.983,159.600 152.352 C 164.059 151.134,172.463 148.980,173.800 148.712 C 175.128 148.446,176.790 149.220,177.392 150.384 M248.612 160.579 C 249.432 161.108,250.606 164.688,253.579 175.727 C 255.350 182.306,254.949 183.466,250.303 185.199 C 246.335 186.678,246.311 186.866,248.872 196.504 C 250.740 203.535,250.667 203.924,247.140 205.800 C 242.682 208.171,242.451 208.954,244.214 215.738 C 246.527 224.639,246.479 224.946,242.430 226.985 C 238.931 228.747,238.711 229.152,239.048 233.197 C 239.433 237.816,238.618 238.427,229.080 240.663 C 223.017 242.085,222.614 242.503,222.988 246.992 C 223.429 252.283,223.136 252.469,208.579 256.159 C 195.853 259.385,193.714 259.935,190.600 260.786 C 182.324 263.048,180.644 262.771,179.200 258.906 C 177.651 254.759,176.507 254.406,170.383 256.180 C 161.362 258.794,159.840 258.527,158.151 254.032 C 156.666 250.082,156.144 249.827,151.656 250.863 C 146.297 252.100,145.523 247.237,150.678 244.718 C 154.179 243.007,154.663 242.116,154.000 238.601 C 153.185 234.280,154.444 233.204,162.249 231.549 C 169.517 230.008,170.745 228.911,170.058 224.575 C 169.373 220.251,171.155 218.637,178.200 217.203 C 192.064 214.381,195.600 212.396,195.600 207.439 C 195.600 204.249,196.119 203.446,199.251 201.801 C 202.586 200.048,202.800 199.681,202.800 195.703 C 202.800 191.898,203.001 191.591,206.501 190.034 C 209.840 188.549,210.220 187.871,209.680 184.360 C 208.939 179.536,209.771 178.862,219.559 176.364 C 226.028 174.713,226.087 174.652,225.740 169.895 C 225.382 164.986,225.731 164.749,238.000 161.575 C 246.113 159.476,246.805 159.411,248.612 160.579 M163.200 163.423 C 161.110 163.938,158.140 164.730,156.600 165.184 C 155.060 165.639,152.793 166.283,151.562 166.616 C 148.049 167.565,147.939 167.717,147.865 171.695 C 147.770 176.767,145.783 178.352,136.934 180.415 C 131.835 181.604,131.994 181.444,132.093 185.312 C 132.203 189.631,131.627 190.718,128.302 192.477 C 125.216 194.109,125.135 194.507,126.576 200.931 C 128.418 209.142,127.940 211.468,123.975 213.581 C 120.323 215.528,120.240 215.878,122.071 221.600 C 123.545 226.205,123.375 226.157,131.055 224.154 C 134.105 223.359,137.761 222.454,139.180 222.144 C 142.825 221.346,143.324 220.793,142.992 217.930 C 142.583 214.409,144.708 210.400,146.983 210.400 C 148.700 210.400,150.000 208.397,150.000 205.752 C 150.000 200.318,152.159 198.617,162.200 196.140 C 166.185 195.156,166.378 194.928,166.118 191.491 C 165.787 187.105,166.787 185.538,170.900 184.002 C 173.766 182.931,173.988 182.260,172.854 178.088 C 171.235 172.133,169.683 166.188,169.411 164.900 C 169.174 163.780,167.857 162.309,167.211 162.444 C 167.095 162.469,165.290 162.909,163.200 163.423 M234.254 175.019 C 230.501 176.330,230.400 176.447,230.400 179.462 C 230.400 183.961,228.687 186.260,224.473 187.418 C 214.404 190.183,214.671 190.009,214.378 193.991 C 214.103 197.741,213.549 198.720,210.571 200.731 C 207.737 202.646,207.831 203.036,211.200 203.319 C 214.786 203.619,216.315 204.539,217.804 207.290 C 219.697 210.785,220.592 210.924,227.600 208.813 C 229.690 208.183,232.650 207.381,234.178 207.031 C 239.049 205.913,239.516 204.825,237.795 198.603 C 235.886 191.701,236.567 188.543,240.539 185.889 C 243.123 184.162,243.244 183.689,242.184 179.458 C 240.703 173.548,239.843 173.066,234.254 175.019 M207.000 222.026 C 205.680 222.456,202.890 223.255,200.800 223.800 C 198.710 224.345,194.660 225.419,191.800 226.187 C 188.940 226.954,185.430 227.863,184.000 228.206 C 175.645 230.210,174.800 230.770,174.800 234.302 C 174.800 237.168,174.096 238.633,171.586 240.990 L 169.467 242.981 171.633 243.437 C 175.684 244.291,176.980 245.202,178.550 248.302 C 180.105 251.370,181.050 251.556,186.370 249.844 C 188.036 249.307,191.740 248.232,194.600 247.455 C 197.460 246.678,201.510 245.562,203.600 244.976 C 205.690 244.390,208.840 243.579,210.600 243.174 C 217.825 241.514,218.400 241.113,218.400 237.738 C 218.400 234.390,219.037 232.981,221.583 230.692 C 223.812 228.687,223.796 228.635,220.858 228.222 C 217.737 227.783,215.840 226.386,214.311 223.400 C 213.020 220.877,211.435 220.579,207.000 222.026 M228.267 227.067 C 227.279 228.054,228.831 228.297,230.400 227.400 L 231.400 226.828 229.967 226.814 C 229.178 226.806,228.413 226.920,228.267 227.067 M225.800 227.786 L 224.600 228.335 226.100 228.368 C 227.181 228.391,227.600 228.232,227.600 227.800 C 227.600 227.075,227.355 227.073,225.800 227.786 M162.400 244.330 L 161.000 244.994 162.879 245.118 C 164.531 245.227,167.200 244.407,167.200 243.790 C 167.200 243.330,163.669 243.727,162.400 244.330 M97.800 360.384 C 98.680 360.800,99.631 361.154,99.914 361.170 C 100.197 361.187,100.917 361.489,101.514 361.842 C 102.548 362.454,102.562 362.452,101.800 361.800 C 100.848 360.984,99.057 360.198,97.400 359.867 C 96.359 359.659,96.413 359.727,97.800 360.384 M104.232 364.939 C 104.338 365.215,104.806 365.702,105.272 366.021 C 105.738 366.339,106.948 367.216,107.960 367.969 C 108.972 368.722,109.544 369.026,109.232 368.645 C 108.369 367.595,104.012 364.365,104.232 364.939 M306.400 367.113 C 305.329 367.499,304.872 367.820,305.272 367.905 C 305.642 367.984,306.632 367.685,307.472 367.242 C 309.303 366.276,308.865 366.223,306.400 367.113 " stroke="none" fill="#ec9e28" fill-rule="evenodd"></path></g></svg>